<svg width="25" height="24" viewBox="0 0 25 24" fill="none" xmlns="http://www.w3.org/2000/svg">
<path d="M14.7679 6.20748C14.4682 5.92148 13.9935 5.93252 13.7075 6.23214C13.4215 6.53177 13.4325 7.00651 13.7321 7.29252L14.7679 6.20748ZM19.75 12L20.2679 12.5425C20.4161 12.401 20.5 12.205 20.5 12C20.5 11.795 20.4161 11.599 20.2679 11.4575L19.75 12ZM13.7321 16.7075C13.4325 16.9935 13.4215 17.4682 13.7075 17.7679C13.9935 18.0675 14.4682 18.0785 14.7679 17.7925L13.7321 16.7075ZM13.7321 7.29252L19.2321 12.5425L20.2679 11.4575L14.7679 6.20748L13.7321 7.29252ZM19.2321 11.4575L13.7321 16.7075L14.7679 17.7925L20.2679 12.5425L19.2321 11.4575Z" fill="#3D4148"/>
<path d="M19.5 12.75C19.9142 12.75 20.25 12.4142 20.25 12C20.25 11.5858 19.9142 11.25 19.5 11.25V12.75ZM5.25 11.25C4.83579 11.25 4.5 11.5858 4.5 12C4.5 12.4142 4.83579 12.75 5.25 12.75V11.25ZM19.5 11.25H5.25V12.75H19.5V11.25Z" fill="#3D4148"/>
</svg>
