<svg width="17" height="16" viewBox="0 0 17 16" fill="none" xmlns="http://www.w3.org/2000/svg">
<path fill-rule="evenodd" clip-rule="evenodd" d="M8.66699 16C13.0853 16 16.667 12.4183 16.667 8C16.667 3.58172 13.0853 0 8.66699 0C4.24871 0 0.666992 3.58172 0.666992 8C0.666992 12.4183 4.24871 16 8.66699 16ZM12.3741 6.70711C12.7646 6.31658 12.7646 5.68342 12.3741 5.29289C11.9836 4.90237 11.3504 4.90237 10.9599 5.29289L7.66699 8.58579L6.3741 7.29289C5.98357 6.90237 5.35041 6.90237 4.95989 7.29289C4.56936 7.68342 4.56936 8.31658 4.95989 8.70711L6.95989 10.7071C7.35041 11.0976 7.98357 11.0976 8.3741 10.7071L12.3741 6.70711Z" fill="#FA5757"/>
</svg>
