<svg width="5" height="8" viewBox="0 0 5 8" fill="none" xmlns="http://www.w3.org/2000/svg">
<path d="M1.26034 0.200405C0.956805 -0.0814472 0.482257 -0.0638713 0.200405 0.239662C-0.0814472 0.543195 -0.0638713 1.01774 0.239662 1.2996L1.26034 0.200405ZM4.25 4L4.76034 4.5496C4.91316 4.40769 5 4.20855 5 4C5 3.79145 4.91316 3.59231 4.76034 3.4504L4.25 4ZM0.239662 6.7004C-0.0638713 6.98226 -0.0814472 7.45681 0.200405 7.76034C0.482257 8.06387 0.956805 8.08145 1.26034 7.7996L0.239662 6.7004ZM0.239662 1.2996L3.73966 4.5496L4.76034 3.4504L1.26034 0.200405L0.239662 1.2996ZM3.73966 3.4504L0.239662 6.7004L1.26034 7.7996L4.76034 4.5496L3.73966 3.4504Z" fill="#7C8085"/>
</svg>
