<svg width="6" height="5" viewBox="0 0 6 5" fill="none" xmlns="http://www.w3.org/2000/svg">
<path d="M5.71624 1.67709C5.99809 1.37355 5.98051 0.899004 5.67698 0.617153C5.37344 0.335301 4.8989 0.352877 4.61704 0.65641L5.71624 1.67709ZM2.99998 3.50008L2.45038 4.01042C2.59229 4.16324 2.79142 4.25008 2.99998 4.25008C3.20853 4.25008 3.40766 4.16324 3.54957 4.01042L2.99998 3.50008ZM1.38291 0.65641C1.10106 0.352877 0.626508 0.335301 0.322975 0.617153C0.0194418 0.899004 0.00186563 1.37355 0.283717 1.67709L1.38291 0.65641ZM4.61704 0.65641L2.45038 2.98974L3.54957 4.01042L5.71624 1.67709L4.61704 0.65641ZM3.54957 2.98974L1.38291 0.65641L0.283717 1.67709L2.45038 4.01042L3.54957 2.98974Z" fill="#232323"/>
</svg>
