<svg width="6" height="5" viewBox="0 0 6 5" fill="none" xmlns="http://www.w3.org/2000/svg">
<path d="M4.61704 4.01042C4.8989 4.31395 5.37344 4.33153 5.67698 4.04968C5.98051 3.76783 5.99809 3.29328 5.71624 2.98974L4.61704 4.01042ZM2.99998 1.16675L3.54957 0.65641C3.40766 0.503585 3.20853 0.416748 2.99998 0.416748C2.79142 0.416748 2.59229 0.503585 2.45038 0.65641L2.99998 1.16675ZM0.283717 2.98974C0.00186563 3.29328 0.0194418 3.76783 0.322975 4.04968C0.626508 4.33153 1.10106 4.31395 1.38291 4.01042L0.283717 2.98974ZM5.71624 2.98974L3.54957 0.65641L2.45038 1.67709L4.61704 4.01042L5.71624 2.98974ZM2.45038 0.65641L0.283717 2.98974L1.38291 4.01042L3.54957 1.67709L2.45038 0.65641Z" fill="#232323"/>
</svg>
