<svg width="24" height="24" viewBox="0 0 24 24" fill="none" xmlns="http://www.w3.org/2000/svg">
<path d="M9.25 5.5C9.66421 5.5 10 5.16421 10 4.75C10 4.33579 9.66421 4 9.25 4V5.5ZM20 14.75C20 14.3358 19.6642 14 19.25 14C18.8358 14 18.5 14.3358 18.5 14.75H20ZM5.5 17.25V6.75H4V17.25H5.5ZM17.25 18.5H6.75V20H17.25V18.5ZM9.25 4H6.75V5.5H9.25V4ZM20 17.25V14.75H18.5V17.25H20ZM17.25 20C18.7688 20 20 18.7688 20 17.25H18.5C18.5 17.9404 17.9404 18.5 17.25 18.5V20ZM4 17.25C4 18.7688 5.23122 20 6.75 20V18.5C6.05964 18.5 5.5 17.9404 5.5 17.25H4ZM5.5 6.75C5.5 6.05964 6.05964 5.5 6.75 5.5V4C5.23122 4 4 5.23122 4 6.75H5.5Z" fill="#3D4148"/>
<path d="M19.25 9.25V4.75H14.75" stroke="#3D4148" stroke-width="1.5" stroke-linecap="round" stroke-linejoin="round"/>
<path d="M19.5303 5.53033C19.8232 5.23744 19.8232 4.76256 19.5303 4.46967C19.2374 4.17678 18.7626 4.17678 18.4697 4.46967L19.5303 5.53033ZM11.2197 11.7197C10.9268 12.0126 10.9268 12.4874 11.2197 12.7803C11.5126 13.0732 11.9874 13.0732 12.2803 12.7803L11.2197 11.7197ZM18.4697 4.46967L11.2197 11.7197L12.2803 12.7803L19.5303 5.53033L18.4697 4.46967Z" fill="#3D4148"/>
</svg>
