<svg width="18" height="18" viewBox="0 0 18 18" fill="none" xmlns="http://www.w3.org/2000/svg">
<path d="M6.23656 10.1183C6.40513 9.78179 6.5 9.40197 6.5 9C6.5 8.59803 6.40513 8.21821 6.23656 7.88172M6.23656 10.1183C5.82611 10.9376 4.97874 11.5 4 11.5C2.61929 11.5 1.5 10.3807 1.5 9C1.5 7.61929 2.61929 6.5 4 6.5C4.97874 6.5 5.82611 7.06243 6.23656 7.88172M6.23656 10.1183L11.7634 12.8817M6.23656 7.88172L11.7634 5.11828M11.7634 5.11828C12.1739 5.93757 13.0213 6.5 14 6.5C15.3807 6.5 16.5 5.38071 16.5 4C16.5 2.61929 15.3807 1.5 14 1.5C12.6193 1.5 11.5 2.61929 11.5 4C11.5 4.40197 11.5949 4.78179 11.7634 5.11828ZM11.7634 12.8817C11.5949 13.2182 11.5 13.598 11.5 14C11.5 15.3807 12.6193 16.5 14 16.5C15.3807 16.5 16.5 15.3807 16.5 14C16.5 12.6193 15.3807 11.5 14 11.5C13.0213 11.5 12.1739 12.0624 11.7634 12.8817Z" stroke="#374151" stroke-width="2" stroke-linecap="round" stroke-linejoin="round"/>
</svg>
