<svg width="16" height="16" viewBox="0 0 16 16" fill="none" xmlns="http://www.w3.org/2000/svg">
<path d="M8 0.75L8.71469 0.522597C8.61567 0.211364 8.32661 0 8 0C7.67339 0 7.38433 0.211364 7.28531 0.522597L8 0.75ZM9.75 6.25L9.03531 6.4774C9.13433 6.78864 9.42339 7 9.75 7V6.25ZM15.25 6.25L15.7105 6.84201C15.9634 6.64531 16.0634 6.30966 15.9594 6.0066C15.8554 5.70354 15.5704 5.5 15.25 5.5V6.25ZM10.75 9.75L10.2895 9.15799C10.0505 9.34387 9.94676 9.65523 10.0264 9.94734L10.75 9.75ZM12.25 15.25L11.7732 15.8289C12.0254 16.0366 12.383 16.0572 12.6573 15.8798C12.9316 15.7024 13.0595 15.3678 12.9736 15.0527L12.25 15.25ZM8 11.75L8.47678 11.1711C8.19984 10.943 7.80016 10.943 7.52322 11.1711L8 11.75ZM3.75 15.25L3.02643 15.0527C2.94047 15.3678 3.0684 15.7024 3.34271 15.8798C3.61702 16.0572 3.97461 16.0366 4.22678 15.8289L3.75 15.25ZM5.25 9.75L5.97357 9.94734C6.05324 9.65523 5.94945 9.34387 5.71046 9.15799L5.25 9.75ZM0.75 6.25V5.5C0.429597 5.5 0.144578 5.70354 0.0405951 6.0066C-0.0633874 6.30966 0.0366336 6.64531 0.289545 6.84201L0.75 6.25ZM6.25 6.25V7C6.57661 7 6.86567 6.78864 6.96469 6.4774L6.25 6.25ZM7.28531 0.977403L9.03531 6.4774L10.4647 6.0226L8.71469 0.522597L7.28531 0.977403ZM9.75 7H15.25V5.5H9.75V7ZM14.7895 5.65799L10.2895 9.15799L11.2105 10.342L15.7105 6.84201L14.7895 5.65799ZM10.0264 9.94734L11.5264 15.4473L12.9736 15.0527L11.4736 9.55266L10.0264 9.94734ZM12.7268 14.6711L8.47678 11.1711L7.52322 12.3289L11.7732 15.8289L12.7268 14.6711ZM7.52322 11.1711L3.27322 14.6711L4.22678 15.8289L8.47678 12.3289L7.52322 11.1711ZM4.47357 15.4473L5.97357 9.94734L4.52643 9.55266L3.02643 15.0527L4.47357 15.4473ZM5.71046 9.15799L1.21046 5.65799L0.289545 6.84201L4.78954 10.342L5.71046 9.15799ZM0.75 7H6.25V5.5H0.75V7ZM6.96469 6.4774L8.71469 0.977403L7.28531 0.522597L5.53531 6.0226L6.96469 6.4774Z" fill="#BCC1D0"/>
</svg>
