<svg width="24" height="24" viewBox="0 0 24 24" fill="none" xmlns="http://www.w3.org/2000/svg">
<path d="M20 8.25C20 7.83579 19.6642 7.5 19.25 7.5C18.8358 7.5 18.5 7.83579 18.5 8.25H20ZM5.5 6.75C5.5 6.33579 5.16421 6 4.75 6C4.33579 6 4 6.33579 4 6.75H5.5ZM18.5 8.25V17.25H20V8.25H18.5ZM17.25 18.5H6.75V20H17.25V18.5ZM5.5 17.25V6.75H4V17.25H5.5ZM6.75 18.5C6.05964 18.5 5.5 17.9404 5.5 17.25H4C4 18.7688 5.23122 20 6.75 20V18.5ZM18.5 17.25C18.5 17.9404 17.9404 18.5 17.25 18.5V20C18.7688 20 20 18.7688 20 17.25H18.5Z" fill="white"/>
<path d="M16 13V14C16.5523 14 17 13.5523 17 13H16ZM16 13H15C15 13.5523 15.4477 14 16 14V13ZM16 13V12C15.4477 12 15 12.4477 15 13H16ZM16 13H17C17 12.4477 16.5523 12 16 12V13Z" fill="white"/>
<path d="M19.25 9C19.6642 9 20 8.66421 20 8.25C20 7.83579 19.6642 7.5 19.25 7.5V9ZM6.5 5.5H15.25V4H6.5V5.5ZM6.5 9H17.25V7.5H6.5V9ZM17.25 9H19.25V7.5H17.25V9ZM16.5 6.75V8.25H18V6.75H16.5ZM4 6.5C4 7.88071 5.11929 9 6.5 9V7.5C5.94772 7.5 5.5 7.05228 5.5 6.5H4ZM15.25 5.5C15.9404 5.5 16.5 6.05964 16.5 6.75H18C18 5.23122 16.7688 4 15.25 4V5.5ZM6.5 4C5.11929 4 4 5.11929 4 6.5H5.5C5.5 5.94772 5.94772 5.5 6.5 5.5V4Z" fill="white"/>
</svg>
