<svg width="25" height="25" viewBox="0 0 25 25" fill="none" xmlns="http://www.w3.org/2000/svg">
<path d="M20.5 8.75C20.5 8.33579 20.1642 8 19.75 8C19.3358 8 19 8.33579 19 8.75H20.5ZM6 7.25C6 6.83579 5.66421 6.5 5.25 6.5C4.83579 6.5 4.5 6.83579 4.5 7.25H6ZM19 8.75V17.75H20.5V8.75H19ZM17.75 19H7.25V20.5H17.75V19ZM6 17.75V7.25H4.5V17.75H6ZM7.25 19C6.55964 19 6 18.4404 6 17.75H4.5C4.5 19.2688 5.73122 20.5 7.25 20.5V19ZM19 17.75C19 18.4404 18.4404 19 17.75 19V20.5C19.2688 20.5 20.5 19.2688 20.5 17.75H19Z" fill="#3D4148"/>
<path d="M16.5 13.5V14.5C17.0523 14.5 17.5 14.0523 17.5 13.5H16.5ZM16.5 13.5H15.5C15.5 14.0523 15.9477 14.5 16.5 14.5V13.5ZM16.5 13.5V12.5C15.9477 12.5 15.5 12.9477 15.5 13.5H16.5ZM16.5 13.5H17.5C17.5 12.9477 17.0523 12.5 16.5 12.5V13.5Z" fill="#3D4148"/>
<path d="M19.75 9.5C20.1642 9.5 20.5 9.16421 20.5 8.75C20.5 8.33579 20.1642 8 19.75 8V9.5ZM7 6H15.75V4.5H7V6ZM7 9.5H17.75V8H7V9.5ZM17.75 9.5H19.75V8H17.75V9.5ZM17 7.25V8.75H18.5V7.25H17ZM4.5 7C4.5 8.38071 5.61929 9.5 7 9.5V8C6.44772 8 6 7.55228 6 7H4.5ZM15.75 6C16.4404 6 17 6.55964 17 7.25H18.5C18.5 5.73122 17.2688 4.5 15.75 4.5V6ZM7 4.5C5.61929 4.5 4.5 5.61929 4.5 7H6C6 6.44772 6.44772 6 7 6V4.5Z" fill="#3D4148"/>
</svg>
