<svg width="16" height="16" viewBox="0 0 16 16" fill="none" xmlns="http://www.w3.org/2000/svg">
<g clip-path="url(#clip0_1876_26685)">
<path d="M16 2.80582C15.4022 3.07098 14.7597 3.2501 14.0856 3.33069C14.7737 2.91817 15.3023 2.26495 15.5512 1.48654C14.907 1.8686 14.1937 2.14593 13.4344 2.29541C12.8264 1.64755 11.9601 1.24283 11.0013 1.24283C9.16051 1.24283 7.66795 2.73523 7.66795 4.57605C7.66795 4.8373 7.69744 5.09174 7.75431 5.33569C4.98397 5.1967 2.52786 3.86961 0.883797 1.85291C0.59687 2.34521 0.432446 2.91777 0.432446 3.52867C0.432446 4.68515 1.02092 5.7054 1.91534 6.30314C1.36894 6.28583 0.854958 6.13587 0.405557 5.88623C0.405178 5.90012 0.405178 5.9141 0.405178 5.92815C0.405178 7.54314 1.55419 8.89028 3.07908 9.19671C2.79938 9.27291 2.5049 9.31361 2.20091 9.31361C1.98612 9.31361 1.77735 9.29265 1.57377 9.25382C1.99799 10.5781 3.22896 11.5418 4.68765 11.5686C3.54684 12.4627 2.10961 12.9956 0.54783 12.9956C0.278774 12.9956 0.0134555 12.9797 -0.247314 12.9489C1.22786 13.8948 2.97997 14.4466 4.86239 14.4466C10.9936 14.4466 14.3464 9.36747 14.3464 4.96249C14.3464 4.81797 14.3432 4.67426 14.3368 4.53121C14.988 4.06133 15.553 3.47432 15.9999 2.80582H16Z" fill="#111827"/>
</g>
<defs>
<clipPath id="clip0_1876_26685">
<rect width="16" height="16" fill="white"/>
</clipPath>
</defs>
</svg>
