<svg width="16" height="16" viewBox="0 0 16 16" fill="none" xmlns="http://www.w3.org/2000/svg">
<g clip-path="url(#clip0_1876_26687)">
<path fill-rule="evenodd" clip-rule="evenodd" d="M0 7.86051C0 3.51873 3.65437 0 7.9946 0C12.3302 0 15.8536 3.65745 15.8536 7.99768C15.8536 12.3379 12.3333 15.9923 7.99306 15.9923L0 16V7.86051ZM3.89173 5.42222C4.77026 3.94768 6.35931 3.0435 8.0763 3.04249L8.08117 3.04203C10.0694 3.04203 11.8571 4.25193 12.5986 6.09684C13.3397 7.94174 12.8862 10.0528 11.4516 11.4297C10.0167 12.8063 7.88974 13.1731 6.0772 12.3564L2.91142 13.0716L3.79303 10.2356C2.9759 8.72518 3.0132 6.89676 3.89173 5.42222Z" fill="#111827"/>
</g>
<defs>
<clipPath id="clip0_1876_26687">
<rect width="16" height="16" fill="white"/>
</clipPath>
</defs>
</svg>
