<svg width="16" height="16" viewBox="0 0 16 16" fill="none" xmlns="http://www.w3.org/2000/svg">
<g clip-path="url(#clip0_1876_26691)">
<path d="M9.46716 6.71282C9.01142 6.71282 8.65163 7.10818 8.65163 7.60036C8.65163 8.09254 9.01942 8.4879 9.46716 8.4879C9.9229 8.4879 10.2827 8.09254 10.2827 7.60036C10.2827 7.10818 9.91491 6.71282 9.46716 6.71282ZM6.54883 6.71282C6.09309 6.71282 5.73329 7.10818 5.73329 7.60036C5.73329 8.09254 6.10108 8.4879 6.54883 8.4879C7.00457 8.4879 7.36436 8.09254 7.36436 7.60036C7.37236 7.10818 7.00457 6.71282 6.54883 6.71282Z" fill="#111827"/>
<path d="M13.3529 -0.000244141H2.63906C1.73558 -0.000244141 1 0.742065 1 1.65382V12.4657C1 13.3775 1.73558 14.1198 2.63906 14.1198H11.7059L11.2821 12.6432L12.3055 13.5953L13.273 14.4909L15 15.9998V1.65382C14.992 0.742065 14.2564 -0.000244141 13.3529 -0.000244141ZM10.2667 10.4486C10.2667 10.4486 9.97887 10.1016 9.73901 9.80308C10.7864 9.50455 11.1862 8.85099 11.1862 8.85099C10.8584 9.06884 10.5465 9.22215 10.2667 9.32704C9.86693 9.49648 9.48315 9.60137 9.10737 9.67399C8.33981 9.81922 7.63621 9.77888 7.03655 9.66592C6.58081 9.57716 6.18903 9.45613 5.86122 9.31897C5.67733 9.24635 5.47744 9.1576 5.27756 9.04464C5.25357 9.0285 5.22958 9.02043 5.2056 9.00429C5.18961 8.99623 5.18161 8.98816 5.17361 8.98816C5.0297 8.90747 4.94974 8.85099 4.94974 8.85099C4.94974 8.85099 5.33352 9.48841 6.34894 9.79502C6.10908 10.1016 5.81325 10.4566 5.81325 10.4566C4.04626 10.4002 3.37464 9.23828 3.37464 9.23828C3.37464 6.6644 4.52598 4.57464 4.52598 4.57464C5.67733 3.7113 6.76471 3.73551 6.76471 3.73551L6.84466 3.83233C5.40548 4.24383 4.74986 4.88125 4.74986 4.88125C4.74986 4.88125 4.92576 4.78443 5.22159 4.65533C6.0771 4.2761 6.75671 4.17928 7.03655 4.14701C7.08452 4.13894 7.1245 4.13087 7.17247 4.13087C7.66019 4.06632 8.21188 4.05018 8.78755 4.11473C9.54712 4.20349 10.3626 4.42941 11.1942 4.88125C11.1942 4.88125 10.5625 4.2761 9.20331 3.86461L9.31525 3.73551C9.31525 3.73551 10.4106 3.7113 11.554 4.57464C11.554 4.57464 12.7053 6.6644 12.7053 9.23828C12.7053 9.23021 12.0337 10.3921 10.2667 10.4486Z" fill="#111827"/>
</g>
<defs>
<clipPath id="clip0_1876_26691">
<rect width="16" height="16" fill="white"/>
</clipPath>
</defs>
</svg>
