<svg width="16" height="16" viewBox="0 0 16 16" fill="none" xmlns="http://www.w3.org/2000/svg">
<path fill-rule="evenodd" clip-rule="evenodd" d="M1 2.00287C1 1.44915 1.46318 1 2.03457 1H13.9654C14.5368 1 15 1.44915 15 2.00287V13.9971C15 14.551 14.5368 15 13.9654 15H2.03457C1.46318 15 1 14.551 1 13.9971V2.00287ZM5.24304 12.7194V6.39763H3.12847V12.7194H5.24304ZM4.18574 5.5345C4.92314 5.5345 5.38211 5.04906 5.38211 4.44239C5.36836 3.82207 4.92314 3.3501 4.19973 3.3501C3.4764 3.3501 3.00346 3.82207 3.00346 4.44239C3.00346 5.04906 3.46233 5.5345 4.17196 5.5345H4.1857H4.18574ZM8.5284 12.7194H6.41391C6.41391 12.7194 6.44166 6.99082 6.41391 6.39763H8.52846V7.29268C8.80948 6.86191 9.31242 6.24929 10.4341 6.24929C11.8254 6.24929 12.8686 7.15282 12.8686 9.09459V12.7194H10.7542V9.33741C10.7542 8.48756 10.4481 7.90783 9.68294 7.90783C9.09878 7.90783 8.75085 8.2988 8.59798 8.67631C8.54215 8.81137 8.5284 9.00012 8.5284 9.18906V12.7194ZM8.52846 7.29268V7.31445H8.51434C8.51898 7.30725 8.52369 7.29999 8.52846 7.29268Z" fill="#111827"/>
</svg>
