<svg width="16" height="16" viewBox="0 0 16 16" fill="none" xmlns="http://www.w3.org/2000/svg">
<g clip-path="url(#clip0_1876_26699)">
<path fill-rule="evenodd" clip-rule="evenodd" d="M8 0C3.58267 0 0 3.58133 0 8C0 12.418 3.58267 16 8 16C12.418 16 16 12.418 16 8C16 3.58133 12.418 0 8 0ZM10.1493 11.914C10.2747 12.0027 10.436 12.0247 10.58 11.9707C10.7233 11.916 10.8293 11.7927 10.8613 11.6433C11.1993 10.0553 12.0193 6.03533 12.3267 4.59133C12.35 4.482 12.3113 4.36867 12.226 4.296C12.14 4.22333 12.0213 4.20267 11.916 4.24133C10.2853 4.84533 5.26333 6.72933 3.21067 7.48867C3.08067 7.53733 2.996 7.662 3 7.8C3.00467 7.93733 3.09733 8.05667 3.23067 8.09667C4.15133 8.372 5.35933 8.75533 5.35933 8.75533C5.35933 8.75533 5.924 10.4607 6.218 11.3273C6.25533 11.4367 6.34067 11.522 6.45267 11.5513C6.56533 11.5807 6.68467 11.55 6.76867 11.4707C7.24133 11.0247 7.972 10.3347 7.972 10.3347C7.972 10.3347 9.36133 11.3527 10.1493 11.914V11.914ZM5.86733 8.53933L6.52067 10.6933L6.666 9.32933C6.666 9.32933 9.188 7.054 10.6267 5.75733C10.6687 5.71933 10.674 5.65533 10.6393 5.61067C10.6047 5.566 10.5407 5.55533 10.4933 5.586C8.82667 6.65 5.86733 8.53933 5.86733 8.53933V8.53933Z" fill="#111827"/>
</g>
<defs>
<clipPath id="clip0_1876_26699">
<rect width="16" height="16" fill="white"/>
</clipPath>
</defs>
</svg>
