<svg width="16" height="16" viewBox="0 0 16 16" fill="none" xmlns="http://www.w3.org/2000/svg">
<g clip-path="url(#clip0_1876_26706)">
<path fill-rule="evenodd" clip-rule="evenodd" d="M9.20771 15.9094C8.81383 15.9691 8.41052 16 8 16C7.79902 16 7.59977 15.9926 7.40251 15.978C7.59975 15.9925 7.79899 15.9998 7.99999 15.9998C8.41058 15.9998 8.81382 15.9683 9.20771 15.9094ZM9.24989 15.9029V10.3128H11.114L11.4684 7.99977H9.24989V6.499C9.24989 5.86674 9.55927 5.2491 10.5538 5.2491H11.5629V3.28032C11.5629 3.28032 10.6472 3.12394 9.77189 3.12394C7.94486 3.12394 6.7501 4.23096 6.7501 6.23687V7.99977H4.71831V10.3128H6.7501V15.9029C2.92551 15.3029 0 11.9931 0 8C0 3.58172 3.58172 0 8 0C12.4183 0 16 3.58172 16 8C16 11.9931 13.0745 15.3029 9.24989 15.9029Z" fill="#111827"/>
</g>
<defs>
<clipPath id="clip0_1876_26706">
<rect width="16" height="16" fill="white"/>
</clipPath>
</defs>
</svg>
