<svg width="16" height="16" viewBox="0 0 16 16" fill="none" xmlns="http://www.w3.org/2000/svg">
<path d="M10.5415 0.0341797H4.49239C2.03399 0.0341797 0.0339355 2.03423 0.0339355 4.49263V10.5417C0.0339355 13.0001 2.03399 15.0002 4.49239 15.0002H10.5415C12.9999 15.0002 14.9999 13.0001 14.9999 10.5417V4.49263C14.9999 2.03423 12.9999 0.0341797 10.5415 0.0341797ZM13.4944 10.5417C13.4944 12.1725 12.1723 13.4946 10.5415 13.4946H4.49239C2.86158 13.4946 1.53951 12.1725 1.53951 10.5417V4.49263C1.53951 2.86179 2.86158 1.53976 4.49239 1.53976H10.5415C12.1723 1.53976 13.4944 2.86179 13.4944 4.49263V10.5417Z" fill="black"/>
<path d="M7.51694 3.64644C5.38261 3.64644 3.6462 5.38285 3.6462 7.51715C3.6462 9.65146 5.38261 11.3879 7.51694 11.3879C9.65127 11.3879 11.3877 9.65148 11.3877 7.51715C11.3877 5.38282 9.65127 3.64644 7.51694 3.64644ZM7.51694 9.88234C6.21068 9.88234 5.15178 8.82343 5.15178 7.51718C5.15178 6.21093 6.21071 5.15202 7.51694 5.15202C8.82319 5.15202 9.8821 6.21093 9.8821 7.51718C9.8821 8.82341 8.82316 9.88234 7.51694 9.88234Z" fill="black"/>
<path d="M11.3952 4.60301C11.9074 4.60301 12.3227 4.18775 12.3227 3.6755C12.3227 3.16325 11.9074 2.74799 11.3952 2.74799C10.8829 2.74799 10.4677 3.16325 10.4677 3.6755C10.4677 4.18775 10.8829 4.60301 11.3952 4.60301Z" fill="black"/>
</svg>
